<?xml version="1.0" encoding="utf-8"?>
<!-- Generator: Adobe Illustrator 17.1.0, SVG Export Plug-In . SVG Version: 6.00 Build 0)  -->
<!DOCTYPE svg PUBLIC "-//W3C//DTD SVG 1.1//EN" "http://www.w3.org/Graphics/SVG/1.1/DTD/svg11.dtd">
<svg version="1.1" id="Layer_1" xmlns="http://www.w3.org/2000/svg" xmlns:xlink="http://www.w3.org/1999/xlink" x="0px" y="0px"
	 viewBox="0 0 510 510" enable-background="new 0 0 510 510" xml:space="preserve">
<circle fill="#E58D51" stroke="#000000" stroke-miterlimit="10" cx="-318.2" cy="261.2" r="227.5"/>
<polygon fill="#BF703A" points="-350.4,356.3 -466,237.4 -305.2,196.7 "/>
<rect x="-466.4" y="140.1" fill="#FFFFFF" width="97" height="97"/>
<rect x="-272.4" y="140.1" fill="#FFFFFF" width="97" height="97"/>
<rect x="-369.4" y="237.1" fill="#FFFFFF" width="97" height="97"/>
<rect x="-369.4" y="334.1" fill="#FFFFFF" width="97" height="97"/>
<rect x="-369.4" y="140.1" fill="#FFFFFF" width="97" height="97"/>
<rect x="55.7" y="-331.9" fill="#FCFCFC" width="392.6" height="57.1"/>
<rect x="55.1" y="-331.9" fill="#E58D51" width="79.3" height="57.1"/>
<rect x="55.7" y="-206.4" fill="#FCFCFC" width="392.6" height="57.1"/>
<rect x="55.1" y="-206.4" fill="#E58D51" width="79.3" height="57.1"/>
<rect x="55.7" y="-87.1" fill="#FCFCFC" width="392.6" height="57.1"/>
<rect x="55.1" y="-87.1" fill="#E58D51" width="79.3" height="57.1"/>
<g>
	<g>
		<path fill="#F2A775" d="M587.4-54.2c-1.8,11.1-2.7,22.6-2.7,34.3c0,69,32,129.2,79.3,160.9h65.8V-54.2H587.4z"/>
		<path fill="#E58D51" d="M924.4-14.3c-5.9-8.4-15.4-14.5-27.1-17c-4-0.9-8-1.3-11.9-1.3c-5.7,0.1-11.1,1-16.3,2.3
			c-0.4-8.1-1.1-16.2-2.3-24H729.9v195.2h60.2c6.7-4.5,13.1-9.7,19.2-15.3c15.7-5.6,32.1-11.7,47.9-19.4
			c26.2-12.9,50.8-30.1,65.6-56.6c6.1-11.1,9.8-23.6,9.8-36.1C932.6,3.9,930.3-6,924.4-14.3z M903.3,38.8
			c-11.4,20.6-31.7,35.5-55.9,47.4c-2.9,1.4-5.9,2.6-8.8,3.9C855.9,62.6,866.9,29.3,869-7c5.6-2,11.1-3.3,16.3-3.2
			c2.4,0,4.8,0.2,7.3,0.8c7.2,1.6,11,4.5,13.6,8.1c2.6,3.6,4.1,8.7,4.1,14.9C910.4,21.4,907.7,30.8,903.3,38.8z"/>
		<path fill="#D4D4D4" d="M760.7-213.6c4.8-19.5-1.7-34-13.5-44.5c5.3,13.3-3.8,23.7-17.4,33.5v48.3
			C740.6-188.2,756.7-197.3,760.7-213.6z"/>
		<path fill="#FFFFFF" d="M720-156.2c0.8-8,4.7-14.4,9.8-20.1v-48.3c-20.8,14.9-51.8,28.1-57.4,47.7c-11.3,39.8,36.6,56.4,57.4,82.2
			v-34C723.8-136.5,718.9-144.8,720-156.2z"/>
		<path fill="#D4D4D4" d="M738-62.6c8.1-9.8,12.6-21.6,9.8-36.7c-2.2-12-10.8-20.4-17.9-29.5v34C737.2-85.7,741.2-75.4,738-62.6z"/>
	</g>
	<g>
		<path fill="#FFFFFF" d="M620.7-36.6H604c-0.5,5.5-0.7,11.1-0.7,16.6c0,55.6,23,107.2,60.8,138.2c-27.6-40.6-43.5-91.9-43.5-146
			C620.5-30.7,620.6-33.6,620.7-36.6z"/>
	</g>
</g>
<g>
	<g>
		<path fill="#E58D51" d="M191.4,329.1c9.1,0.2,17.2,4.6,23.1,11.4c10,8,35.8,14.2,41.3-19.1v-66h-66.9c-29.6-6.7-23.5-31-15.8-40.7
			c6.9-5.9,11.2-14,11.4-23.1c0.4-18.6-16.5-34.1-37.9-34.6s-39.1,14.1-39.6,32.7c-0.2,8.8,3.5,16.9,9.8,23.1h-0.1
			c8.8,8.7,17.7,37.1-16.3,42.6H37.1v218.6h218.7v-56.3c-3.5-39.4-34.1-30.1-43.2-20.8v-0.1c-6.2,6.2-14.3,10-23.1,9.8
			c-18.6-0.5-33.3-18.2-32.7-39.6C157.3,345.7,172.8,328.7,191.4,329.1z"/>
	</g>
	<g>
		<path fill="#528FD8" d="M323.9,320.4c0.2-9.1,4.6-17.2,11.4-23.1c8-10,14.2-35.8-19.1-41.3h-62v68.8c-6.7,29.6-31,23.5-40.7,15.8
			c-5.9-6.8-14-11.2-23.1-11.4c-18.6-0.5-34.1,16.5-34.6,37.9c-0.5,21.4,14.1,39.1,32.7,39.6c8.8,0.2,16.9-3.5,23.1-9.8v0.1
			c8.7-8.8,37.1-17.7,42.6,16.3v61.4h218.7V256h-60.3c-39.4,3.5-30,34.1-20.8,43.2h-0.1c6.2,6.2,10,14.3,9.8,23.1
			c-0.5,18.6-18.2,33.2-39.6,32.7C340.4,354.5,323.4,339,323.9,320.4z"/>
	</g>
</g>
<g>
	<path fill="#FCFCFC" d="M317.5,183c-9.1-0.2-17.2-4.6-23.1-11.4c-10-8-35.8-14.2-41.3,19.1v66l66.9,0c29.6,6.7,23.5,31,15.8,40.7
		c-6.9,5.9-11.2,14-11.4,23.1c-0.4,18.6,16.5,34.1,37.9,34.6c21.4,0.5,39.1-14.1,39.6-32.7c0.2-8.8-3.5-16.9-9.8-23.1h0.1
		c-8.8-8.7-17.7-37.1,16.3-42.6l63.3,0V38.1l-218.7,0v56.3c3.5,39.4,34.1,30.1,43.2,20.8v0.1c6.2-6.2,14.3-10,23.1-9.8
		c18.6,0.5,33.3,18.2,32.7,39.6C351.7,166.5,336.1,183.5,317.5,183z"/>
</g>
</svg>
